<svg width="858" height="275" viewBox="0 0 858 275" fill="none" xmlns="http://www.w3.org/2000/svg">
<path d="M827.953 274H722.944V259.029H707.972V244.059H693V214.015H722.944V229.088H737.916V244.059H812.981V229.088H827.953V199.044H812.981V184.073H737.916V169H707.972V154.029H693V94.0439H707.972V79.0732H722.944V64H827.953V79.0732H842.925V94.0439H858V124.088H827.953V109.015H812.981V94.0439H737.916V109.015H722.944V139.059H737.916V154.029H812.981V169H842.925V184.073H858V244.059H842.925V259.029H827.953V274Z" fill="black"></path>
<path d="M589.757 274.188C570.809 274.188 554.386 269.893 540.49 261.302C526.847 252.712 516.236 240.585 508.656 224.921C501.329 209.004 497.666 190.434 497.666 169.211C497.666 147.988 501.329 129.545 508.656 113.88C516.236 98.216 526.721 86.0887 540.111 77.4986C553.755 68.6558 569.798 64.2344 588.241 64.2344C605.674 64.2344 621.086 68.4031 634.477 76.7406C647.867 84.8254 658.226 96.7001 665.553 112.364C673.132 128.029 676.922 147.104 676.922 169.59V179.064H531.016C532.279 200.54 537.964 216.709 548.07 227.573C558.429 238.437 572.324 243.869 589.757 243.869C602.895 243.869 613.633 240.838 621.97 234.774C630.561 228.458 636.498 220.247 639.782 210.14L673.89 212.793C668.585 230.732 658.479 245.512 643.572 257.134C628.918 268.503 610.98 274.188 589.757 274.188ZM531.016 151.02H642.056C640.54 131.566 634.856 117.291 625.002 108.196C615.401 99.1002 603.148 94.5525 588.241 94.5525C572.83 94.5525 560.071 99.3529 549.965 108.954C540.111 118.302 533.795 132.324 531.016 151.02Z" fill="black"></path>
<path d="M394.714 274.188C380.819 274.188 368.439 271.156 357.575 265.092C346.711 258.776 338.373 250.186 332.562 239.322L331.425 269.64H302.623V0.566406H334.457V96.8265C339.51 88.489 347.342 81.0358 357.954 74.4669C368.565 67.6453 380.819 64.2345 394.714 64.2345C412.4 64.2345 427.685 68.5296 440.571 77.1197C453.456 85.7099 463.436 97.8371 470.51 113.502C477.584 129.166 481.121 147.736 481.121 169.211C481.121 190.686 477.584 209.256 470.51 224.921C463.436 240.585 453.456 252.712 440.571 261.302C427.685 269.893 412.4 274.188 394.714 274.188ZM392.82 243.87C409.747 243.87 423.138 237.174 432.991 223.784C442.844 210.393 447.771 192.202 447.771 169.211C447.771 145.967 442.844 127.776 432.991 114.638C423.138 101.248 410 94.5527 393.578 94.5527C375.134 94.5527 360.607 101.248 349.995 114.638C339.636 127.776 334.457 145.967 334.457 169.211C334.457 192.202 339.636 210.393 349.995 223.784C360.354 237.174 374.629 243.87 392.82 243.87Z" fill="black"></path>
<path d="M247.501 269.64V68.7823H279.335V269.64H247.501ZM246.743 37.3272V0.1875H280.093V37.3272H246.743Z" fill="black"></path>
<path d="M97.897 269.64L0.5 0.566406H36.1238L119.499 234.016L202.495 0.566406H238.118L140.721 269.64H97.897Z" fill="black"></path>
</svg>
